<svg xmlns="http://www.w3.org/2000/svg" width="1026" height="380" viewBox="0 0 1026 380">
<rect x="0" y="0" width="1026" height="380" rx="0" fill="#faf7f0" stroke="#faf7f0" stroke-width="0" opacity="1"/>
<defs>
  <marker id="arr" markerWidth="8" markerHeight="8" refX="6" refY="3" orient="auto">
    <path d="M0,0 L0,6 L7,3 z" fill="#64748b"/>
  </marker>
</defs>
<text x="513.0" y="48" text-anchor="middle" font-family="Georgia, 'Iowan Old Style', serif" font-size="16" font-weight="bold" fill="#1d1d1b">Tensor Ranks — from scalar to 3-D</text>
<text x="513.0" y="70" text-anchor="middle" font-family="Georgia, 'Iowan Old Style', serif" font-size="11" font-weight="normal" fill="#64748b">Same idea at every rank: a flat buffer + a shape label</text>
<rect x="30" y="90" width="150" height="260" rx="14" fill="#ffffff" stroke="#e2dfd8" stroke-width="1.2" opacity="1"/>
<text x="105.0" y="116" text-anchor="middle" font-family="Georgia, 'Iowan Old Style', serif" font-size="14" font-weight="bold" fill="#1d1d1b">Scalar</text>
<rect x="55.0" y="126" width="100" height="20" rx="10" fill="#d8f0eb" stroke="#0f766e" stroke-width="0.8" opacity="1"/>
<text x="105.0" y="140" text-anchor="middle" font-family="ui-monospace, SFMono-Regular, Menlo, monospace" font-size="10.5" font-weight="normal" fill="#0f766e">shape: []</text>
<rect x="77.0" y="210" width="56" height="50" rx="10" fill="#fef3c7" stroke="#b45309" stroke-width="1.4" opacity="1"/>
<text x="105.0" y="241.0" text-anchor="middle" font-family="ui-monospace, SFMono-Regular, Menlo, monospace" font-size="18" font-weight="bold" fill="#b45309">4.0</text>
<text x="105.0" y="284" text-anchor="middle" font-family="Georgia, 'Iowan Old Style', serif" font-size="10" font-weight="normal" fill="#64748b">(no axes)</text>
<text x="105.0" y="334" text-anchor="middle" font-family="Georgia, 'Iowan Old Style', serif" font-size="10" font-weight="normal" fill="#64748b">rank 0  ·  1 value</text>
<rect x="202" y="90" width="230" height="260" rx="14" fill="#ffffff" stroke="#e2dfd8" stroke-width="1.2" opacity="1"/>
<text x="317.0" y="116" text-anchor="middle" font-family="Georgia, 'Iowan Old Style', serif" font-size="14" font-weight="bold" fill="#1d1d1b">Vector</text>
<rect x="267.0" y="126" width="100" height="20" rx="10" fill="#d8f0eb" stroke="#0f766e" stroke-width="0.8" opacity="1"/>
<text x="317.0" y="140" text-anchor="middle" font-family="ui-monospace, SFMono-Regular, Menlo, monospace" font-size="10.5" font-weight="normal" fill="#0f766e">shape: [4]</text>
<line x1="229.5" y1="202" x2="404.5" y2="202" stroke="#64748b" stroke-width="1.3" marker-end="url(#arr)"/>
<text x="410.5" y="206" text-anchor="start" font-family="Georgia, 'Iowan Old Style', serif" font-size="10" font-weight="normal" fill="#64748b">axis 0</text>
<rect x="229.5" y="220" width="40" height="38" rx="6" fill="#d8f0eb" stroke="#0f766e" stroke-width="1.3" opacity="1"/>
<text x="249.5" y="244.0" text-anchor="middle" font-family="ui-monospace, SFMono-Regular, Menlo, monospace" font-size="13" font-weight="bold" fill="#0f766e">1.0</text>
<text x="249.5" y="276" text-anchor="middle" font-family="ui-monospace, SFMono-Regular, Menlo, monospace" font-size="9.5" font-weight="normal" fill="#64748b">[0]</text>
<rect x="274.5" y="220" width="40" height="38" rx="6" fill="#d8f0eb" stroke="#0f766e" stroke-width="1.3" opacity="1"/>
<text x="294.5" y="244.0" text-anchor="middle" font-family="ui-monospace, SFMono-Regular, Menlo, monospace" font-size="13" font-weight="bold" fill="#0f766e">2.0</text>
<text x="294.5" y="276" text-anchor="middle" font-family="ui-monospace, SFMono-Regular, Menlo, monospace" font-size="9.5" font-weight="normal" fill="#64748b">[1]</text>
<rect x="319.5" y="220" width="40" height="38" rx="6" fill="#d8f0eb" stroke="#0f766e" stroke-width="1.3" opacity="1"/>
<text x="339.5" y="244.0" text-anchor="middle" font-family="ui-monospace, SFMono-Regular, Menlo, monospace" font-size="13" font-weight="bold" fill="#0f766e">3.0</text>
<text x="339.5" y="276" text-anchor="middle" font-family="ui-monospace, SFMono-Regular, Menlo, monospace" font-size="9.5" font-weight="normal" fill="#64748b">[2]</text>
<rect x="364.5" y="220" width="40" height="38" rx="6" fill="#d8f0eb" stroke="#0f766e" stroke-width="1.3" opacity="1"/>
<text x="384.5" y="244.0" text-anchor="middle" font-family="ui-monospace, SFMono-Regular, Menlo, monospace" font-size="13" font-weight="bold" fill="#0f766e">4.0</text>
<text x="384.5" y="276" text-anchor="middle" font-family="ui-monospace, SFMono-Regular, Menlo, monospace" font-size="9.5" font-weight="normal" fill="#64748b">[3]</text>
<text x="317.0" y="334" text-anchor="middle" font-family="Georgia, 'Iowan Old Style', serif" font-size="10" font-weight="normal" fill="#64748b">rank 1  ·  4 values</text>
<rect x="454" y="90" width="260" height="260" rx="14" fill="#ffffff" stroke="#e2dfd8" stroke-width="1.2" opacity="1"/>
<text x="584.0" y="116" text-anchor="middle" font-family="Georgia, 'Iowan Old Style', serif" font-size="14" font-weight="bold" fill="#1d1d1b">Matrix</text>
<rect x="534.0" y="126" width="100" height="20" rx="10" fill="#d8f0eb" stroke="#0f766e" stroke-width="0.8" opacity="1"/>
<text x="584.0" y="140" text-anchor="middle" font-family="ui-monospace, SFMono-Regular, Menlo, monospace" font-size="10.5" font-weight="normal" fill="#0f766e">shape: [3, 4]</text>
<line x1="506.0" y1="182" x2="678.0" y2="182" stroke="#64748b" stroke-width="1.3" marker-end="url(#arr)"/>
<text x="684.0" y="186" text-anchor="start" font-family="Georgia, 'Iowan Old Style', serif" font-size="10" font-weight="normal" fill="#64748b">axis 1 (cols)</text>
<line x1="488.0" y1="200" x2="488.0" y2="304" stroke="#64748b" stroke-width="1.3" marker-end="url(#arr)"/>
<text x="482.0" y="252.0" text-anchor="middle" font-family="Georgia, 'Iowan Old Style', serif" font-size="10" font-weight="normal" fill="#64748b" transform="rotate(-90, 482.0, 252.0)">axis 0 (rows)</text>
<rect x="506.0" y="200" width="40" height="32" rx="5" fill="#d8f0eb" stroke="#0f766e" stroke-width="1.3" opacity="1"/>
<text x="526.0" y="220.0" text-anchor="middle" font-family="ui-monospace, SFMono-Regular, Menlo, monospace" font-size="12" font-weight="bold" fill="#0f766e">1</text>
<rect x="550.0" y="200" width="40" height="32" rx="5" fill="#ffffff" stroke="#0f766e" stroke-width="1.3" opacity="1"/>
<text x="570.0" y="220.0" text-anchor="middle" font-family="ui-monospace, SFMono-Regular, Menlo, monospace" font-size="12" font-weight="bold" fill="#0f766e">2</text>
<rect x="594.0" y="200" width="40" height="32" rx="5" fill="#d8f0eb" stroke="#0f766e" stroke-width="1.3" opacity="1"/>
<text x="614.0" y="220.0" text-anchor="middle" font-family="ui-monospace, SFMono-Regular, Menlo, monospace" font-size="12" font-weight="bold" fill="#0f766e">3</text>
<rect x="638.0" y="200" width="40" height="32" rx="5" fill="#ffffff" stroke="#0f766e" stroke-width="1.3" opacity="1"/>
<text x="658.0" y="220.0" text-anchor="middle" font-family="ui-monospace, SFMono-Regular, Menlo, monospace" font-size="12" font-weight="bold" fill="#0f766e">4</text>
<rect x="506.0" y="236" width="40" height="32" rx="5" fill="#ffffff" stroke="#0f766e" stroke-width="1.3" opacity="1"/>
<text x="526.0" y="256.0" text-anchor="middle" font-family="ui-monospace, SFMono-Regular, Menlo, monospace" font-size="12" font-weight="bold" fill="#0f766e">5</text>
<rect x="550.0" y="236" width="40" height="32" rx="5" fill="#d8f0eb" stroke="#0f766e" stroke-width="1.3" opacity="1"/>
<text x="570.0" y="256.0" text-anchor="middle" font-family="ui-monospace, SFMono-Regular, Menlo, monospace" font-size="12" font-weight="bold" fill="#0f766e">6</text>
<rect x="594.0" y="236" width="40" height="32" rx="5" fill="#ffffff" stroke="#0f766e" stroke-width="1.3" opacity="1"/>
<text x="614.0" y="256.0" text-anchor="middle" font-family="ui-monospace, SFMono-Regular, Menlo, monospace" font-size="12" font-weight="bold" fill="#0f766e">7</text>
<rect x="638.0" y="236" width="40" height="32" rx="5" fill="#d8f0eb" stroke="#0f766e" stroke-width="1.3" opacity="1"/>
<text x="658.0" y="256.0" text-anchor="middle" font-family="ui-monospace, SFMono-Regular, Menlo, monospace" font-size="12" font-weight="bold" fill="#0f766e">8</text>
<rect x="506.0" y="272" width="40" height="32" rx="5" fill="#d8f0eb" stroke="#0f766e" stroke-width="1.3" opacity="1"/>
<text x="526.0" y="292.0" text-anchor="middle" font-family="ui-monospace, SFMono-Regular, Menlo, monospace" font-size="12" font-weight="bold" fill="#0f766e">9</text>
<rect x="550.0" y="272" width="40" height="32" rx="5" fill="#ffffff" stroke="#0f766e" stroke-width="1.3" opacity="1"/>
<text x="570.0" y="292.0" text-anchor="middle" font-family="ui-monospace, SFMono-Regular, Menlo, monospace" font-size="12" font-weight="bold" fill="#0f766e">10</text>
<rect x="594.0" y="272" width="40" height="32" rx="5" fill="#d8f0eb" stroke="#0f766e" stroke-width="1.3" opacity="1"/>
<text x="614.0" y="292.0" text-anchor="middle" font-family="ui-monospace, SFMono-Regular, Menlo, monospace" font-size="12" font-weight="bold" fill="#0f766e">11</text>
<rect x="638.0" y="272" width="40" height="32" rx="5" fill="#ffffff" stroke="#0f766e" stroke-width="1.3" opacity="1"/>
<text x="658.0" y="292.0" text-anchor="middle" font-family="ui-monospace, SFMono-Regular, Menlo, monospace" font-size="12" font-weight="bold" fill="#0f766e">12</text>
<text x="584.0" y="334" text-anchor="middle" font-family="Georgia, 'Iowan Old Style', serif" font-size="10" font-weight="normal" fill="#64748b">rank 2  ·  12 values</text>
<rect x="736" y="90" width="260" height="260" rx="14" fill="#ffffff" stroke="#e2dfd8" stroke-width="1.2" opacity="1"/>
<text x="866.0" y="116" text-anchor="middle" font-family="Georgia, 'Iowan Old Style', serif" font-size="14" font-weight="bold" fill="#1d1d1b">3-D Tensor</text>
<rect x="816.0" y="126" width="100" height="20" rx="10" fill="#d8f0eb" stroke="#0f766e" stroke-width="0.8" opacity="1"/>
<text x="866.0" y="140" text-anchor="middle" font-family="ui-monospace, SFMono-Regular, Menlo, monospace" font-size="10.5" font-weight="normal" fill="#0f766e">shape: [2, 3, 4]</text>
<line x1="830.0" y1="202.0" x2="808.0" y2="220.0" stroke="#a7dcd2" stroke-width="1" stroke-dasharray="3 3" opacity="0.6"/>
<line x1="924.0" y1="202.0" x2="902.0" y2="220.0" stroke="#a7dcd2" stroke-width="1" stroke-dasharray="3 3" opacity="0.6"/>
<line x1="830.0" y1="260.0" x2="808.0" y2="278.0" stroke="#a7dcd2" stroke-width="1" stroke-dasharray="3 3" opacity="0.6"/>
<line x1="924.0" y1="260.0" x2="902.0" y2="278.0" stroke="#a7dcd2" stroke-width="1" stroke-dasharray="3 3" opacity="0.6"/>
<rect x="830.0" y="202.0" width="22" height="18" rx="3" fill="#a7dcd2" stroke="#0f766e" stroke-width="1.1" opacity="0.55"/>
<rect x="854.0" y="202.0" width="22" height="18" rx="3" fill="#a7dcd2" stroke="#0f766e" stroke-width="1.1" opacity="0.55"/>
<rect x="878.0" y="202.0" width="22" height="18" rx="3" fill="#a7dcd2" stroke="#0f766e" stroke-width="1.1" opacity="0.55"/>
<rect x="902.0" y="202.0" width="22" height="18" rx="3" fill="#a7dcd2" stroke="#0f766e" stroke-width="1.1" opacity="0.55"/>
<rect x="830.0" y="222.0" width="22" height="18" rx="3" fill="#a7dcd2" stroke="#0f766e" stroke-width="1.1" opacity="0.55"/>
<rect x="854.0" y="222.0" width="22" height="18" rx="3" fill="#a7dcd2" stroke="#0f766e" stroke-width="1.1" opacity="0.55"/>
<rect x="878.0" y="222.0" width="22" height="18" rx="3" fill="#a7dcd2" stroke="#0f766e" stroke-width="1.1" opacity="0.55"/>
<rect x="902.0" y="222.0" width="22" height="18" rx="3" fill="#a7dcd2" stroke="#0f766e" stroke-width="1.1" opacity="0.55"/>
<rect x="830.0" y="242.0" width="22" height="18" rx="3" fill="#a7dcd2" stroke="#0f766e" stroke-width="1.1" opacity="0.55"/>
<rect x="854.0" y="242.0" width="22" height="18" rx="3" fill="#a7dcd2" stroke="#0f766e" stroke-width="1.1" opacity="0.55"/>
<rect x="878.0" y="242.0" width="22" height="18" rx="3" fill="#a7dcd2" stroke="#0f766e" stroke-width="1.1" opacity="0.55"/>
<rect x="902.0" y="242.0" width="22" height="18" rx="3" fill="#a7dcd2" stroke="#0f766e" stroke-width="1.1" opacity="0.55"/>
<rect x="808.0" y="220.0" width="22" height="18" rx="3" fill="#d8f0eb" stroke="#0f766e" stroke-width="1.1" opacity="1.0"/>
<rect x="832.0" y="220.0" width="22" height="18" rx="3" fill="#d8f0eb" stroke="#0f766e" stroke-width="1.1" opacity="1.0"/>
<rect x="856.0" y="220.0" width="22" height="18" rx="3" fill="#d8f0eb" stroke="#0f766e" stroke-width="1.1" opacity="1.0"/>
<rect x="880.0" y="220.0" width="22" height="18" rx="3" fill="#d8f0eb" stroke="#0f766e" stroke-width="1.1" opacity="1.0"/>
<rect x="808.0" y="240.0" width="22" height="18" rx="3" fill="#d8f0eb" stroke="#0f766e" stroke-width="1.1" opacity="1.0"/>
<rect x="832.0" y="240.0" width="22" height="18" rx="3" fill="#d8f0eb" stroke="#0f766e" stroke-width="1.1" opacity="1.0"/>
<rect x="856.0" y="240.0" width="22" height="18" rx="3" fill="#d8f0eb" stroke="#0f766e" stroke-width="1.1" opacity="1.0"/>
<rect x="880.0" y="240.0" width="22" height="18" rx="3" fill="#d8f0eb" stroke="#0f766e" stroke-width="1.1" opacity="1.0"/>
<rect x="808.0" y="260.0" width="22" height="18" rx="3" fill="#d8f0eb" stroke="#0f766e" stroke-width="1.1" opacity="1.0"/>
<rect x="832.0" y="260.0" width="22" height="18" rx="3" fill="#d8f0eb" stroke="#0f766e" stroke-width="1.1" opacity="1.0"/>
<rect x="856.0" y="260.0" width="22" height="18" rx="3" fill="#d8f0eb" stroke="#0f766e" stroke-width="1.1" opacity="1.0"/>
<rect x="880.0" y="260.0" width="22" height="18" rx="3" fill="#d8f0eb" stroke="#0f766e" stroke-width="1.1" opacity="1.0"/>
<line x1="784.0" y1="296.0" x2="806.0" y2="278.0" stroke="#64748b" stroke-width="1.3" marker-end="url(#arr)"/>
<text x="774.0" y="300.0" text-anchor="end" font-family="Georgia, 'Iowan Old Style', serif" font-size="9.5" font-weight="normal" fill="#64748b">axis 0</text>
<line x1="796.0" y1="220.0" x2="796.0" y2="278.0" stroke="#64748b" stroke-width="1.3" marker-end="url(#arr)"/>
<text x="792.0" y="249.0" text-anchor="middle" font-family="Georgia, 'Iowan Old Style', serif" font-size="9.5" font-weight="normal" fill="#64748b" transform="rotate(-90, 792.0, 249.0)">axis 1</text>
<line x1="808.0" y1="208.0" x2="902.0" y2="208.0" stroke="#64748b" stroke-width="1.3" marker-end="url(#arr)"/>
<text x="908.0" y="212.0" text-anchor="start" font-family="Georgia, 'Iowan Old Style', serif" font-size="9.5" font-weight="normal" fill="#64748b">axis 2</text>
<text x="866.0" y="334" text-anchor="middle" font-family="Georgia, 'Iowan Old Style', serif" font-size="10" font-weight="normal" fill="#64748b">rank 3  ·  24 values</text>
</svg>