<svg xmlns="http://www.w3.org/2000/svg" viewBox="0 0 720 410" width="720" height="410">
  <rect width="720" height="410" fill="#faf7f0" rx="12"/>
  <text x="360" y="24" text-anchor="middle" fill="#8b7355" font-family="monospace" font-size="11" font-weight="600">30 epochs &#8212; the gap between the two lines is the whole story</text>
<line x1="70" y1="250.0" x2="640" y2="250.0" stroke="#e8dfc8"/><text x="62" y="253.0" text-anchor="end" font-family="monospace" font-size="8" fill="#8b7355">70%</text><line x1="70" y1="190.0" x2="640" y2="190.0" stroke="#e8dfc8"/><text x="62" y="193.0" text-anchor="end" font-family="monospace" font-size="8" fill="#8b7355">80%</text><line x1="70" y1="130.0" x2="640" y2="130.0" stroke="#e8dfc8"/><text x="62" y="133.0" text-anchor="end" font-family="monospace" font-size="8" fill="#8b7355">90%</text><line x1="70" y1="70.0" x2="640" y2="70.0" stroke="#e8dfc8"/><text x="62" y="73.0" text-anchor="end" font-family="monospace" font-size="8" fill="#8b7355">100%</text>
<line x1="70.0" y1="250" x2="70.0" y2="254" stroke="#c9b88a"/><text x="70.0" y="265" text-anchor="middle" font-family="monospace" font-size="8" fill="#8b7355">1</text><line x1="148.6" y1="250" x2="148.6" y2="254" stroke="#c9b88a"/><text x="148.6" y="265" text-anchor="middle" font-family="monospace" font-size="8" fill="#8b7355">5</text><line x1="246.9" y1="250" x2="246.9" y2="254" stroke="#c9b88a"/><text x="246.9" y="265" text-anchor="middle" font-family="monospace" font-size="8" fill="#8b7355">10</text><line x1="345.2" y1="250" x2="345.2" y2="254" stroke="#c9b88a"/><text x="345.2" y="265" text-anchor="middle" font-family="monospace" font-size="8" fill="#8b7355">15</text><line x1="443.4" y1="250" x2="443.4" y2="254" stroke="#c9b88a"/><text x="443.4" y="265" text-anchor="middle" font-family="monospace" font-size="8" fill="#8b7355">20</text><line x1="541.7" y1="250" x2="541.7" y2="254" stroke="#c9b88a"/><text x="541.7" y="265" text-anchor="middle" font-family="monospace" font-size="8" fill="#8b7355">25</text><line x1="640.0" y1="250" x2="640.0" y2="254" stroke="#c9b88a"/><text x="640.0" y="265" text-anchor="middle" font-family="monospace" font-size="8" fill="#8b7355">30</text>
  <polygon points="70.0,208.3 89.7,132.1 109.3,107.5 129.0,101.8 148.6,87.7 168.3,80.8 187.9,80.2 207.6,75.7 227.2,73.6 246.9,72.7 266.6,71.8 286.2,70.9 305.9,70.6 325.5,70.3 345.2,70.0 364.8,70.0 384.5,70.0 404.1,70.0 423.8,70.0 443.4,70.0 463.1,70.0 482.8,70.0 502.4,70.0 522.1,70.0 541.7,70.0 561.4,70.0 581.0,70.0 600.7,70.0 620.3,70.0 640.0,70.0 640.0,121.6 620.3,124.0 600.7,120.4 581.0,122.8 561.4,122.8 541.7,121.6 522.1,120.4 502.4,120.4 482.8,119.2 463.1,121.6 443.4,125.2 423.8,120.4 404.1,120.4 384.5,120.4 364.8,120.4 345.2,125.2 325.5,121.6 305.9,126.4 286.2,127.6 266.6,124.0 246.9,124.0 227.2,125.2 207.6,127.6 187.9,132.4 168.3,130.0 148.6,140.8 129.0,146.8 109.3,149.2 89.7,170.8 70.0,239.2" fill="#a94442" opacity="0.10"/>
  <polyline points="70.0,208.3 89.7,132.1 109.3,107.5 129.0,101.8 148.6,87.7 168.3,80.8 187.9,80.2 207.6,75.7 227.2,73.6 246.9,72.7 266.6,71.8 286.2,70.9 305.9,70.6 325.5,70.3 345.2,70.0 364.8,70.0 384.5,70.0 404.1,70.0 423.8,70.0 443.4,70.0 463.1,70.0 482.8,70.0 502.4,70.0 522.1,70.0 541.7,70.0 561.4,70.0 581.0,70.0 600.7,70.0 620.3,70.0 640.0,70.0" fill="none" stroke="#1e6091" stroke-width="2"/>
  <polyline points="70.0,239.2 89.7,170.8 109.3,149.2 129.0,146.8 148.6,140.8 168.3,130.0 187.9,132.4 207.6,127.6 227.2,125.2 246.9,124.0 266.6,124.0 286.2,127.6 305.9,126.4 325.5,121.6 345.2,125.2 364.8,120.4 384.5,120.4 404.1,120.4 423.8,120.4 443.4,125.2 463.1,121.6 482.8,119.2 502.4,120.4 522.1,120.4 541.7,121.6 561.4,122.8 581.0,122.8 600.7,120.4 620.3,124.0 640.0,121.6" fill="none" stroke="#2e7d32" stroke-width="2"/>
  <line x1="345.2" y1="70" x2="345.2" y2="250" stroke="#a94442" stroke-width="1" stroke-dasharray="4 3"/>
  <text x="350.2" y="82" font-family="monospace" font-size="8" fill="#a94442">train hits 100% at epoch 15</text>
  <text x="636" y="64.0" text-anchor="end" font-family="monospace" font-size="9" font-weight="700" fill="#1e6091">train 100.0%</text>
  <text x="636" y="137.6" text-anchor="end" font-family="monospace" font-size="9" font-weight="700" fill="#2e7d32">test 91.4%</text>
  <text x="360" y="280" text-anchor="middle" font-family="monospace" font-size="9" fill="#8b7355">epoch</text>
  <text x="345.2" y="103.0" text-anchor="middle" font-family="monospace" font-size="8.5" font-weight="700" fill="#a94442">this gap is memorisation</text>

  <text x="70" y="292" font-family="monospace" font-size="9" font-weight="700" fill="#5a4220">training loss (log scale)</text>
  <polyline points="70.0,316.0 89.7,326.4 109.3,332.4 129.0,336.6 148.6,339.8 168.3,343.3 187.9,346.5 207.6,348.9 227.2,351.1 246.9,355.5 266.6,357.1 286.2,359.5 305.9,361.8 325.5,365.9 345.2,368.4 364.8,370.5 384.5,373.0 404.1,374.7 423.8,376.5 443.4,378.1 463.1,379.2 482.8,380.6 502.4,381.3 522.1,383.1 541.7,384.1 561.4,385.2 581.0,386.4 600.7,387.2 620.3,388.0 640.0,388.8" fill="none" stroke="#a94442" stroke-width="2"/>
  <text x="636" y="382.8" text-anchor="end" font-family="monospace" font-size="8.5" fill="#a94442">0.0018</text>
  <text x="76" y="310.0" font-family="monospace" font-size="8.5" fill="#a94442">1.6025</text>
  <text x="360" y="405" text-anchor="middle" font-family="monospace" font-size="8.5" fill="#8b7355">loss keeps falling for all 30 epochs. test accuracy stopped improving around epoch 22 (91.8%). the loss is not the goal.</text>
</svg>
