<svg xmlns="http://www.w3.org/2000/svg" viewBox="0 0 720 596" width="720" height="596">
  <rect width="720" height="596" fill="#faf7f0" rx="12"/>
  <text x="360" y="26" text-anchor="middle" fill="#8b7355" font-family="monospace" font-size="11" font-weight="600">confusion matrix &#8212; 500 test images, 50 of each digit</text>
  <text x="360" y="44" text-anchor="middle" fill="#8b7355" font-family="monospace" font-size="9">rows are the true digit, columns are what the network said. the diagonal is correct.</text>
  <text x="340" y="64" text-anchor="middle" font-family="monospace" font-size="9" font-weight="700" fill="#5a4220">predicted</text>
  <text x="68" y="310" text-anchor="middle" font-family="monospace" font-size="9" font-weight="700" fill="#5a4220" transform="rotate(-90 68 310)">actual</text>
<text x="142.0" y="82" text-anchor="middle" font-family="monospace" font-size="10" font-weight="700" fill="#5a4220">0</text><text x="186.0" y="82" text-anchor="middle" font-family="monospace" font-size="10" font-weight="700" fill="#5a4220">1</text><text x="230.0" y="82" text-anchor="middle" font-family="monospace" font-size="10" font-weight="700" fill="#5a4220">2</text><text x="274.0" y="82" text-anchor="middle" font-family="monospace" font-size="10" font-weight="700" fill="#5a4220">3</text><text x="318.0" y="82" text-anchor="middle" font-family="monospace" font-size="10" font-weight="700" fill="#5a4220">4</text><text x="362.0" y="82" text-anchor="middle" font-family="monospace" font-size="10" font-weight="700" fill="#5a4220">5</text><text x="406.0" y="82" text-anchor="middle" font-family="monospace" font-size="10" font-weight="700" fill="#5a4220">6</text><text x="450.0" y="82" text-anchor="middle" font-family="monospace" font-size="10" font-weight="700" fill="#5a4220">7</text><text x="494.0" y="82" text-anchor="middle" font-family="monospace" font-size="10" font-weight="700" fill="#5a4220">8</text><text x="538.0" y="82" text-anchor="middle" font-family="monospace" font-size="10" font-weight="700" fill="#5a4220">9</text><text x="110" y="116.0" text-anchor="end" font-family="monospace" font-size="10" font-weight="700" fill="#5a4220">0</text><text x="570" y="116.0" font-family="monospace" font-size="9" fill="#8b7355">98%</text><text x="110" y="160.0" text-anchor="end" font-family="monospace" font-size="10" font-weight="700" fill="#5a4220">1</text><text x="570" y="160.0" font-family="monospace" font-size="9" fill="#8b7355">100%</text><text x="110" y="204.0" text-anchor="end" font-family="monospace" font-size="10" font-weight="700" fill="#5a4220">2</text><text x="570" y="204.0" font-family="monospace" font-size="9" fill="#8b7355">90%</text><text x="110" y="248.0" text-anchor="end" font-family="monospace" font-size="10" font-weight="700" fill="#5a4220">3</text><text x="570" y="248.0" font-family="monospace" font-size="9" fill="#8b7355">88%</text><text x="110" y="292.0" text-anchor="end" font-family="monospace" font-size="10" font-weight="700" fill="#5a4220">4</text><text x="570" y="292.0" font-family="monospace" font-size="9" fill="#8b7355">94%</text><text x="110" y="336.0" text-anchor="end" font-family="monospace" font-size="10" font-weight="700" fill="#5a4220">5</text><text x="570" y="336.0" font-family="monospace" font-size="9" fill="#8b7355">90%</text><text x="110" y="380.0" text-anchor="end" font-family="monospace" font-size="10" font-weight="700" fill="#5a4220">6</text><text x="570" y="380.0" font-family="monospace" font-size="9" fill="#8b7355">86%</text><text x="110" y="424.0" text-anchor="end" font-family="monospace" font-size="10" font-weight="700" fill="#5a4220">7</text><text x="570" y="424.0" font-family="monospace" font-size="9" fill="#8b7355">92%</text><text x="110" y="468.0" text-anchor="end" font-family="monospace" font-size="10" font-weight="700" fill="#5a4220">8</text><text x="570" y="468.0" font-family="monospace" font-size="9" fill="#8b7355">86%</text><text x="110" y="512.0" text-anchor="end" font-family="monospace" font-size="10" font-weight="700" fill="#5a4220">9</text><text x="570" y="512.0" font-family="monospace" font-size="9" fill="#8b7355">90%</text>
<rect x="120" y="90" width="44" height="44" fill="rgb(191,230,191)" stroke="#2e7d32" stroke-width="1.6"/>
<text x="142.0" y="116.0" text-anchor="middle" font-family="monospace" font-size="11" font-weight="700" fill="#2e7d32">49</text>
<rect x="164" y="90" width="44" height="44" fill="#faf7f0" stroke="#f0e9da" stroke-width="1"/>
<rect x="208" y="90" width="44" height="44" fill="#faf7f0" stroke="#f0e9da" stroke-width="1"/>
<rect x="252" y="90" width="44" height="44" fill="#faf7f0" stroke="#f0e9da" stroke-width="1"/>
<rect x="296" y="90" width="44" height="44" fill="#faf7f0" stroke="#f0e9da" stroke-width="1"/>
<rect x="340" y="90" width="44" height="44" fill="#faf7f0" stroke="#f0e9da" stroke-width="1"/>
<rect x="384" y="90" width="44" height="44" fill="#faf7f0" stroke="#f0e9da" stroke-width="1"/>
<rect x="428" y="90" width="44" height="44" fill="#faf7f0" stroke="#f0e9da" stroke-width="1"/>
<rect x="472" y="90" width="44" height="44" fill="#faf7f0" stroke="#f0e9da" stroke-width="1"/>
<rect x="516" y="90" width="44" height="44" fill="rgb(255,237,237)" stroke="#ead9d7" stroke-width="1"/>
<text x="538.0" y="116.0" text-anchor="middle" font-family="monospace" font-size="11" font-weight="400" fill="#a94442">1</text>
<rect x="120" y="134" width="44" height="44" fill="#faf7f0" stroke="#f0e9da" stroke-width="1"/>
<rect x="164" y="134" width="44" height="44" fill="rgb(190,230,190)" stroke="#2e7d32" stroke-width="1.6"/>
<text x="186.0" y="160.0" text-anchor="middle" font-family="monospace" font-size="11" font-weight="700" fill="#2e7d32">50</text>
<rect x="208" y="134" width="44" height="44" fill="#faf7f0" stroke="#f0e9da" stroke-width="1"/>
<rect x="252" y="134" width="44" height="44" fill="#faf7f0" stroke="#f0e9da" stroke-width="1"/>
<rect x="296" y="134" width="44" height="44" fill="#faf7f0" stroke="#f0e9da" stroke-width="1"/>
<rect x="340" y="134" width="44" height="44" fill="#faf7f0" stroke="#f0e9da" stroke-width="1"/>
<rect x="384" y="134" width="44" height="44" fill="#faf7f0" stroke="#f0e9da" stroke-width="1"/>
<rect x="428" y="134" width="44" height="44" fill="#faf7f0" stroke="#f0e9da" stroke-width="1"/>
<rect x="472" y="134" width="44" height="44" fill="#faf7f0" stroke="#f0e9da" stroke-width="1"/>
<rect x="516" y="134" width="44" height="44" fill="#faf7f0" stroke="#f0e9da" stroke-width="1"/>
<rect x="120" y="178" width="44" height="44" fill="rgb(255,237,237)" stroke="#ead9d7" stroke-width="1"/>
<text x="142.0" y="204.0" text-anchor="middle" font-family="monospace" font-size="11" font-weight="400" fill="#a94442">1</text>
<rect x="164" y="178" width="44" height="44" fill="#faf7f0" stroke="#f0e9da" stroke-width="1"/>
<rect x="208" y="178" width="44" height="44" fill="rgb(196,232,196)" stroke="#2e7d32" stroke-width="1.6"/>
<text x="230.0" y="204.0" text-anchor="middle" font-family="monospace" font-size="11" font-weight="700" fill="#2e7d32">45</text>
<rect x="252" y="178" width="44" height="44" fill="#faf7f0" stroke="#f0e9da" stroke-width="1"/>
<rect x="296" y="178" width="44" height="44" fill="#faf7f0" stroke="#f0e9da" stroke-width="1"/>
<rect x="340" y="178" width="44" height="44" fill="#faf7f0" stroke="#f0e9da" stroke-width="1"/>
<rect x="384" y="178" width="44" height="44" fill="#faf7f0" stroke="#f0e9da" stroke-width="1"/>
<rect x="428" y="178" width="44" height="44" fill="rgb(255,219,219)" stroke="#ead9d7" stroke-width="1"/>
<text x="450.0" y="204.0" text-anchor="middle" font-family="monospace" font-size="11" font-weight="400" fill="#a94442">2</text>
<rect x="472" y="178" width="44" height="44" fill="rgb(255,219,219)" stroke="#ead9d7" stroke-width="1"/>
<text x="494.0" y="204.0" text-anchor="middle" font-family="monospace" font-size="11" font-weight="400" fill="#a94442">2</text>
<rect x="516" y="178" width="44" height="44" fill="#faf7f0" stroke="#f0e9da" stroke-width="1"/>
<rect x="120" y="222" width="44" height="44" fill="#faf7f0" stroke="#f0e9da" stroke-width="1"/>
<rect x="164" y="222" width="44" height="44" fill="#faf7f0" stroke="#f0e9da" stroke-width="1"/>
<rect x="208" y="222" width="44" height="44" fill="rgb(255,237,237)" stroke="#ead9d7" stroke-width="1"/>
<text x="230.0" y="248.0" text-anchor="middle" font-family="monospace" font-size="11" font-weight="400" fill="#a94442">1</text>
<rect x="252" y="222" width="44" height="44" fill="rgb(197,232,197)" stroke="#2e7d32" stroke-width="1.6"/>
<text x="274.0" y="248.0" text-anchor="middle" font-family="monospace" font-size="11" font-weight="700" fill="#2e7d32">44</text>
<rect x="296" y="222" width="44" height="44" fill="#faf7f0" stroke="#f0e9da" stroke-width="1"/>
<rect x="340" y="222" width="44" height="44" fill="rgb(255,219,219)" stroke="#ead9d7" stroke-width="1"/>
<text x="362.0" y="248.0" text-anchor="middle" font-family="monospace" font-size="11" font-weight="400" fill="#a94442">2</text>
<rect x="384" y="222" width="44" height="44" fill="#faf7f0" stroke="#f0e9da" stroke-width="1"/>
<rect x="428" y="222" width="44" height="44" fill="rgb(255,219,219)" stroke="#ead9d7" stroke-width="1"/>
<text x="450.0" y="248.0" text-anchor="middle" font-family="monospace" font-size="11" font-weight="400" fill="#a94442">2</text>
<rect x="472" y="222" width="44" height="44" fill="rgb(255,237,237)" stroke="#ead9d7" stroke-width="1"/>
<text x="494.0" y="248.0" text-anchor="middle" font-family="monospace" font-size="11" font-weight="400" fill="#a94442">1</text>
<rect x="516" y="222" width="44" height="44" fill="#faf7f0" stroke="#f0e9da" stroke-width="1"/>
<rect x="120" y="266" width="44" height="44" fill="rgb(255,237,237)" stroke="#ead9d7" stroke-width="1"/>
<text x="142.0" y="292.0" text-anchor="middle" font-family="monospace" font-size="11" font-weight="400" fill="#a94442">1</text>
<rect x="164" y="266" width="44" height="44" fill="#faf7f0" stroke="#f0e9da" stroke-width="1"/>
<rect x="208" y="266" width="44" height="44" fill="#faf7f0" stroke="#f0e9da" stroke-width="1"/>
<rect x="252" y="266" width="44" height="44" fill="#faf7f0" stroke="#f0e9da" stroke-width="1"/>
<rect x="296" y="266" width="44" height="44" fill="rgb(193,231,193)" stroke="#2e7d32" stroke-width="1.6"/>
<text x="318.0" y="292.0" text-anchor="middle" font-family="monospace" font-size="11" font-weight="700" fill="#2e7d32">47</text>
<rect x="340" y="266" width="44" height="44" fill="#faf7f0" stroke="#f0e9da" stroke-width="1"/>
<rect x="384" y="266" width="44" height="44" fill="rgb(255,237,237)" stroke="#ead9d7" stroke-width="1"/>
<text x="406.0" y="292.0" text-anchor="middle" font-family="monospace" font-size="11" font-weight="400" fill="#a94442">1</text>
<rect x="428" y="266" width="44" height="44" fill="#faf7f0" stroke="#f0e9da" stroke-width="1"/>
<rect x="472" y="266" width="44" height="44" fill="#faf7f0" stroke="#f0e9da" stroke-width="1"/>
<rect x="516" y="266" width="44" height="44" fill="rgb(255,237,237)" stroke="#ead9d7" stroke-width="1"/>
<text x="538.0" y="292.0" text-anchor="middle" font-family="monospace" font-size="11" font-weight="400" fill="#a94442">1</text>
<rect x="120" y="310" width="44" height="44" fill="rgb(255,237,237)" stroke="#ead9d7" stroke-width="1"/>
<text x="142.0" y="336.0" text-anchor="middle" font-family="monospace" font-size="11" font-weight="400" fill="#a94442">1</text>
<rect x="164" y="310" width="44" height="44" fill="#faf7f0" stroke="#f0e9da" stroke-width="1"/>
<rect x="208" y="310" width="44" height="44" fill="#faf7f0" stroke="#f0e9da" stroke-width="1"/>
<rect x="252" y="310" width="44" height="44" fill="#faf7f0" stroke="#f0e9da" stroke-width="1"/>
<rect x="296" y="310" width="44" height="44" fill="#faf7f0" stroke="#f0e9da" stroke-width="1"/>
<rect x="340" y="310" width="44" height="44" fill="rgb(196,232,196)" stroke="#2e7d32" stroke-width="1.6"/>
<text x="362.0" y="336.0" text-anchor="middle" font-family="monospace" font-size="11" font-weight="700" fill="#2e7d32">45</text>
<rect x="384" y="310" width="44" height="44" fill="rgb(255,237,237)" stroke="#ead9d7" stroke-width="1"/>
<text x="406.0" y="336.0" text-anchor="middle" font-family="monospace" font-size="11" font-weight="400" fill="#a94442">1</text>
<rect x="428" y="310" width="44" height="44" fill="rgb(255,237,237)" stroke="#ead9d7" stroke-width="1"/>
<text x="450.0" y="336.0" text-anchor="middle" font-family="monospace" font-size="11" font-weight="400" fill="#a94442">1</text>
<rect x="472" y="310" width="44" height="44" fill="rgb(255,219,219)" stroke="#ead9d7" stroke-width="1"/>
<text x="494.0" y="336.0" text-anchor="middle" font-family="monospace" font-size="11" font-weight="400" fill="#a94442">2</text>
<rect x="516" y="310" width="44" height="44" fill="#faf7f0" stroke="#f0e9da" stroke-width="1"/>
<rect x="120" y="354" width="44" height="44" fill="rgb(255,237,237)" stroke="#ead9d7" stroke-width="1"/>
<text x="142.0" y="380.0" text-anchor="middle" font-family="monospace" font-size="11" font-weight="400" fill="#a94442">1</text>
<rect x="164" y="354" width="44" height="44" fill="#faf7f0" stroke="#f0e9da" stroke-width="1"/>
<rect x="208" y="354" width="44" height="44" fill="rgb(255,201,201)" stroke="#ead9d7" stroke-width="1"/>
<text x="230.0" y="380.0" text-anchor="middle" font-family="monospace" font-size="11" font-weight="400" fill="#a94442">3</text>
<rect x="252" y="354" width="44" height="44" fill="#faf7f0" stroke="#f0e9da" stroke-width="1"/>
<rect x="296" y="354" width="44" height="44" fill="rgb(255,237,237)" stroke="#ead9d7" stroke-width="1"/>
<text x="318.0" y="380.0" text-anchor="middle" font-family="monospace" font-size="11" font-weight="400" fill="#a94442">1</text>
<rect x="340" y="354" width="44" height="44" fill="rgb(255,219,219)" stroke="#ead9d7" stroke-width="1"/>
<text x="362.0" y="380.0" text-anchor="middle" font-family="monospace" font-size="11" font-weight="400" fill="#a94442">2</text>
<rect x="384" y="354" width="44" height="44" fill="rgb(198,232,198)" stroke="#2e7d32" stroke-width="1.6"/>
<text x="406.0" y="380.0" text-anchor="middle" font-family="monospace" font-size="11" font-weight="700" fill="#2e7d32">43</text>
<rect x="428" y="354" width="44" height="44" fill="#faf7f0" stroke="#f0e9da" stroke-width="1"/>
<rect x="472" y="354" width="44" height="44" fill="#faf7f0" stroke="#f0e9da" stroke-width="1"/>
<rect x="516" y="354" width="44" height="44" fill="#faf7f0" stroke="#f0e9da" stroke-width="1"/>
<rect x="120" y="398" width="44" height="44" fill="#faf7f0" stroke="#f0e9da" stroke-width="1"/>
<rect x="164" y="398" width="44" height="44" fill="#faf7f0" stroke="#f0e9da" stroke-width="1"/>
<rect x="208" y="398" width="44" height="44" fill="rgb(255,237,237)" stroke="#ead9d7" stroke-width="1"/>
<text x="230.0" y="424.0" text-anchor="middle" font-family="monospace" font-size="11" font-weight="400" fill="#a94442">1</text>
<rect x="252" y="398" width="44" height="44" fill="#faf7f0" stroke="#f0e9da" stroke-width="1"/>
<rect x="296" y="398" width="44" height="44" fill="rgb(255,237,237)" stroke="#ead9d7" stroke-width="1"/>
<text x="318.0" y="424.0" text-anchor="middle" font-family="monospace" font-size="11" font-weight="400" fill="#a94442">1</text>
<rect x="340" y="398" width="44" height="44" fill="#faf7f0" stroke="#f0e9da" stroke-width="1"/>
<rect x="384" y="398" width="44" height="44" fill="#faf7f0" stroke="#f0e9da" stroke-width="1"/>
<rect x="428" y="398" width="44" height="44" fill="rgb(194,231,194)" stroke="#2e7d32" stroke-width="1.6"/>
<text x="450.0" y="424.0" text-anchor="middle" font-family="monospace" font-size="11" font-weight="700" fill="#2e7d32">46</text>
<rect x="472" y="398" width="44" height="44" fill="#faf7f0" stroke="#f0e9da" stroke-width="1"/>
<rect x="516" y="398" width="44" height="44" fill="rgb(255,219,219)" stroke="#ead9d7" stroke-width="1"/>
<text x="538.0" y="424.0" text-anchor="middle" font-family="monospace" font-size="11" font-weight="400" fill="#a94442">2</text>
<rect x="120" y="442" width="44" height="44" fill="#faf7f0" stroke="#f0e9da" stroke-width="1"/>
<rect x="164" y="442" width="44" height="44" fill="#faf7f0" stroke="#f0e9da" stroke-width="1"/>
<rect x="208" y="442" width="44" height="44" fill="rgb(255,219,219)" stroke="#ead9d7" stroke-width="1"/>
<text x="230.0" y="468.0" text-anchor="middle" font-family="monospace" font-size="11" font-weight="400" fill="#a94442">2</text>
<rect x="252" y="442" width="44" height="44" fill="rgb(255,237,237)" stroke="#ead9d7" stroke-width="1"/>
<text x="274.0" y="468.0" text-anchor="middle" font-family="monospace" font-size="11" font-weight="400" fill="#a94442">1</text>
<rect x="296" y="442" width="44" height="44" fill="rgb(255,237,237)" stroke="#ead9d7" stroke-width="1"/>
<text x="318.0" y="468.0" text-anchor="middle" font-family="monospace" font-size="11" font-weight="400" fill="#a94442">1</text>
<rect x="340" y="442" width="44" height="44" fill="#faf7f0" stroke="#f0e9da" stroke-width="1"/>
<rect x="384" y="442" width="44" height="44" fill="rgb(255,237,237)" stroke="#ead9d7" stroke-width="1"/>
<text x="406.0" y="468.0" text-anchor="middle" font-family="monospace" font-size="11" font-weight="400" fill="#a94442">1</text>
<rect x="428" y="442" width="44" height="44" fill="rgb(255,219,219)" stroke="#ead9d7" stroke-width="1"/>
<text x="450.0" y="468.0" text-anchor="middle" font-family="monospace" font-size="11" font-weight="400" fill="#a94442">2</text>
<rect x="472" y="442" width="44" height="44" fill="rgb(198,232,198)" stroke="#2e7d32" stroke-width="1.6"/>
<text x="494.0" y="468.0" text-anchor="middle" font-family="monospace" font-size="11" font-weight="700" fill="#2e7d32">43</text>
<rect x="516" y="442" width="44" height="44" fill="#faf7f0" stroke="#f0e9da" stroke-width="1"/>
<rect x="120" y="486" width="44" height="44" fill="#faf7f0" stroke="#f0e9da" stroke-width="1"/>
<rect x="164" y="486" width="44" height="44" fill="#faf7f0" stroke="#f0e9da" stroke-width="1"/>
<rect x="208" y="486" width="44" height="44" fill="#faf7f0" stroke="#f0e9da" stroke-width="1"/>
<rect x="252" y="486" width="44" height="44" fill="#faf7f0" stroke="#f0e9da" stroke-width="1"/>
<rect x="296" y="486" width="44" height="44" fill="rgb(255,237,237)" stroke="#ead9d7" stroke-width="1"/>
<text x="318.0" y="512.0" text-anchor="middle" font-family="monospace" font-size="11" font-weight="400" fill="#a94442">1</text>
<rect x="340" y="486" width="44" height="44" fill="#faf7f0" stroke="#f0e9da" stroke-width="1"/>
<rect x="384" y="486" width="44" height="44" fill="#faf7f0" stroke="#f0e9da" stroke-width="1"/>
<rect x="428" y="486" width="44" height="44" fill="rgb(255,219,219)" stroke="#ead9d7" stroke-width="1"/>
<text x="450.0" y="512.0" text-anchor="middle" font-family="monospace" font-size="11" font-weight="400" fill="#a94442">2</text>
<rect x="472" y="486" width="44" height="44" fill="rgb(255,219,219)" stroke="#ead9d7" stroke-width="1"/>
<text x="494.0" y="512.0" text-anchor="middle" font-family="monospace" font-size="11" font-weight="400" fill="#a94442">2</text>
<rect x="516" y="486" width="44" height="44" fill="rgb(196,232,196)" stroke="#2e7d32" stroke-width="1.6"/>
<text x="538.0" y="512.0" text-anchor="middle" font-family="monospace" font-size="11" font-weight="700" fill="#2e7d32">45</text>
  <text x="570" y="82" font-family="monospace" font-size="8" fill="#8b7355">recall</text>
  <text x="360" y="566" text-anchor="middle" font-family="monospace" font-size="9" fill="#5a4220">digit <tspan font-weight="700" fill="#a94442">6</tspan> is the weakest at 86% &#8212; every off-diagonal cell is a pair the network finds genuinely similar</text>
  <text x="360" y="582" text-anchor="middle" font-family="monospace" font-size="8.5" fill="#8b7355">a single accuracy number would have hidden all of this</text>
</svg>
